<?xml version="1.0" encoding="UTF-8" standalone="no"?>
<!-- Created with Inkscape (http://www.inkscape.org/) -->

<svg
   xmlns:dc="http://purl.org/dc/elements/1.1/"
   xmlns:cc="http://creativecommons.org/ns#"
   xmlns:rdf="http://www.w3.org/1999/02/22-rdf-syntax-ns#"
   xmlns:svg="http://www.w3.org/2000/svg"
   xmlns="http://www.w3.org/2000/svg"
   xmlns:sodipodi="http://sodipodi.sourceforge.net/DTD/sodipodi-0.dtd"
   xmlns:inkscape="http://www.inkscape.org/namespaces/inkscape"
   id="svg2"
   version="1.1"
   inkscape:version="0.92.3 (2405546, 2018-03-11)"
   sodipodi:docname="polyaxon.svg"
   width="722.8457"
   height="701.96637">
  <metadata
     id="metadata29">
    <rdf:RDF>
      <cc:Work
         rdf:about="">
        <dc:format>image/svg+xml</dc:format>
        <dc:type
           rdf:resource="http://purl.org/dc/dcmitype/StillImage" />
        <dc:title />
      </cc:Work>
    </rdf:RDF>
  </metadata>
  <defs
     id="defs27" />
  <sodipodi:namedview
     pagecolor="#fb5462"
     bordercolor="#666666"
     borderopacity="1"
     objecttolerance="10"
     gridtolerance="10"
     guidetolerance="10"
     inkscape:pageopacity="0"
     inkscape:pageshadow="2"
     inkscape:window-width="4800"
     inkscape:window-height="2544"
     id="namedview25"
     showgrid="false"
     inkscape:zoom="1.668772"
     inkscape:cx="304.73267"
     inkscape:cy="204.2323"
     inkscape:window-x="9584"
     inkscape:window-y="-16"
     inkscape:window-maximized="1"
     inkscape:current-layer="g22"
     scale-x="3" />
  <g
     id="g22"
     transform="matrix(2.8983609,0,0,4.1428965,-50.61761,-61.477936)"
     style="display:inline">
    <rect
       style="fill:#475462;fill-opacity:1;stroke-width:0.41885385"
       id="rect823"
       width="248.92987"
       height="170.24541"
       x="17.429483"
       y="14.107121" />
    <g
       transform="matrix(1.9886589,0,0,1.8590273,157.91609,277.32646)"
       id="g20"
       style="fill:#f9f9f9">
      <path
         d="m -21.104692,-120.1658 c -3.511,0 -6.812,-0.497 -9.349,-1.411 -2.97,-1.071 -4.62,-2.65 -4.647,-4.445 l 1.967,-0.029 c 0.012,0.879 1.295,1.884 3.347,2.625 2.449,0.883 5.725,1.355 9.197,1.291 3.482,-0.05 6.734,-0.604 9.155,-1.558 2.03,-0.799 3.283,-1.842 3.27,-2.72 l 1.968,-0.029 c 0.027,1.795 -1.577,3.421 -4.515,4.578 -2.637,1.039 -6.135,1.64 -9.848,1.694 -0.183,0.003 -0.364,0.004 -0.545,0.004 z"
         id="path2"
         inkscape:connector-curvature="0"
         style="fill:#f9f9f9" />
      <path
         d="m -34.262692,-68.441799 c -0.026,-1.795 1.577,-3.421 4.516,-4.578 2.637,-1.039 6.135,-1.641 9.848,-1.694 3.711,-0.062 7.227,0.445 9.893,1.407 2.971,1.071 4.621,2.649 4.647,4.445 l -1.967,0.029 c -0.012,-0.878 -1.295,-1.884 -3.347,-2.624 -2.449,-0.883 -5.713,-1.345 -9.197,-1.291 -3.482,0.05 -6.734,0.603 -9.155,1.557 -2.03,0.8 -3.283,1.842 -3.27,2.721 z"
         id="path4"
         inkscape:connector-curvature="0"
         style="fill:#f9f9f9" />
      <path
         d="m -50.694692,-98.384799 c -0.56,0 -1.076,-0.128 -1.529,-0.383 l 0.965,-1.714001 c 0.291,0.164 0.694,0.176 1.197,0.033 2.392,-0.678 5.857,-4.391 8.424,-9.029 3.774,-6.815 4.023,-12.163 2.539,-12.997 l 0.965,-1.714 c 3.412,1.919 1.628,9.502 -1.783,15.662 -2.891,5.22 -6.662,9.133001 -9.609,9.968001 -0.403,0.117 -0.795,0.174 -1.169,0.174 z"
         id="path6"
         inkscape:connector-curvature="0"
         style="fill:#f9f9f9" />
      <path
         d="m -37.346692,-70.187799 -1.014,-1.684 c 1.458,-0.877 1.053,-6.217 -2.917,-12.918 -2.702,-4.562 -6.273,-8.172 -8.684,-8.781 -0.507,-0.127 -0.909,-0.105 -1.196,0.067 l -1.014,-1.684 c 0.743,-0.447 1.674,-0.547 2.691,-0.29 2.97,0.75 6.854,4.551 9.895,9.685 3.589,6.059 5.594,13.587 2.239,15.605 z"
         id="path8"
         inkscape:connector-curvature="0"
         style="fill:#f9f9f9" />
      <path
         d="m -15.491692,-82.441799 c -4.988,0 -9.106,-4.125 -9.179,-9.148 -0.036,-2.467 0.884,-4.539 2.59,-6.309 1.709,-1.773 4.001,-2.543001 6.454,-2.543001 h 0.135 c 4.988,0 9.105,3.844001 9.178,8.867001 0.074,5.095 -3.983,9.133 -9.044,9.133 z m 0,-16 h -0.106 c -1.925,0 -3.724,0.512 -5.066,1.904 -1.344,1.394 -2.068,3.106 -2.04,5.051 0.057,3.955 3.293,7.045 7.212,7.045 h 0.105 c 3.976,0 7.164,-3.093 7.105,-7.105 -0.057,-3.955 -3.292,-6.895 -7.21,-6.895 z"
         id="path10"
         inkscape:connector-curvature="0"
         style="fill:#f9f9f9" />
      <path
         d="m -2.325692,-70.696799 c -3.413,-1.92 -1.628,-9.502 1.783,-15.662 3.706,-6.694 6.656,-9.186 11.692,-9.875 l 0.267,1.948 c -4.358,0.595 -6.847,2.753 -10.238,8.879 -3.774,6.814 -4.023,12.162 -2.54,12.997 z"
         id="path12"
         inkscape:connector-curvature="0"
         style="fill:#f9f9f9" />
      <path
         d="m 10.857308,-99.289799 c -5.042,-0.635 -8.02,-3.095001 -11.798,-9.749001 -3.477,-6.124 -5.341,-13.687 -1.95,-15.642 l 0.984,1.703 c -1.475,0.85 -1.168,6.195 2.678,12.969 3.456,6.089 5.968,8.22 10.332,8.769 z"
         id="path14"
         inkscape:connector-curvature="0"
         style="fill:#f9f9f9" />
      <path
         d="m 36.792308,-94.276799 h -1.661 c -0.544,0 -0.984,-0.44 -0.984,-0.983 0,-0.543 0.44,-0.983 0.984,-0.983 h 1.661 c 0.544,0 0.984,0.44 0.984,0.983 0,0.543 -0.44,0.983 -0.984,0.983 z m -7.032,0 h -2.578 c -0.544,0 -0.984,-0.44 -0.984,-0.983 0,-0.543 0.44,-0.983 0.984,-0.983 h 2.578 c 0.544,0 0.984,0.44 0.984,0.983 0,0.543 -0.44,0.983 -0.984,0.983 z m -7.95,0 h -2.578 c -0.544,0 -0.984,-0.44 -0.984,-0.983 0,-0.543 0.44,-0.983 0.984,-0.983 h 2.578 c 0.544,0 0.984,0.44 0.984,0.983 0,0.543 -0.44,0.983 -0.984,0.983 z m -7.949,0 h -2.578 c -0.544,0 -0.984,-0.44 -0.984,-0.983 0,-0.543 0.44,-0.983 0.984,-0.983 h 2.578 c 0.544,0 0.984,0.44 0.984,0.983 0,0.543 -0.441,0.983 -0.984,0.983 z"
         id="path16"
         inkscape:connector-curvature="0"
         style="fill:#f9f9f9" />
      <path
         d="m 10.980308,-99.282799 c -0.539,0 -0.978,-0.433 -0.984,-0.972001 -0.006,-0.543 0.43,-0.988 0.973,-0.994 l 2.578,-0.027 c 0.004,0 0.008,0 0.011,0 0.539,0 0.978,0.433 0.984,0.972 0.006,0.543001 -0.43,0.988001 -0.973,0.994001 l -2.578,0.027 c -0.005,0 -0.009,0 -0.011,0 z m 7.949,-0.085 c -0.539,0 -0.978,-0.433 -0.984,-0.972001 -0.006,-0.543 0.43,-0.988 0.973,-0.994 l 2.578,-0.027 c 0.004,0 0.008,0 0.011,0 0.539,0 0.978,0.433 0.984,0.972 0.006,0.543001 -0.43,0.988001 -0.973,0.994001 l -2.578,0.027 c -0.004,0 -0.008,0 -0.011,0 z m 7.949,-0.084 c -0.539,0 -0.978,-0.433 -0.984,-0.972001 -0.006,-0.543 0.429,-0.988 0.973,-0.994 l 2.578,-0.028 c 0.581,0.017 0.989,0.429 0.994,0.972 0.006,0.543001 -0.429,0.988001 -0.973,0.994001 l -2.578,0.028 c -0.003,0 -0.006,0 -0.01,0 z m 7.95,-0.085 c -0.539,0 -0.978,-0.433 -0.984,-0.972001 -0.006,-0.543 0.43,-0.988 0.973,-0.994 l 1.66,-0.018 c 0.538,0.024 0.989,0.43 0.994,0.972 0.006,0.543 -0.43,0.988001 -0.973,0.994001 l -1.66,0.018 c -0.004,0 -0.006,0 -0.01,0 z"
         id="path18"
         inkscape:connector-curvature="0"
         style="fill:#f9f9f9" />
    </g>
  </g>
</svg>
